<svg xmlns="http://www.w3.org/2000/svg" viewBox="0 0 96 96">
  <title>Puppy Icon</title>
  <path
    fill="#4a2f24"
    d="M18 36c0-15.5 12.5-28 28-28h4c15.5 0 28 12.5 28 28v18c0 15.5-12.5 28-28 28h-4c-15.5 0-28-12.5-28-28V36Z"
  />
  <path
    fill="#6b4534"
    d="M19.6 39.4C10.7 34.1 7.5 22.6 12.7 13.5c.9-1.5 2.9-1.9 4.2-.8l18.5 15.2-15.8 11.5Zm56.8 0c8.9-5.3 12.1-16.8 6.9-25.9-.9-1.5-2.9-1.9-4.2-.8L60.6 27.9l15.8 11.5Z"
  />
  <path
    fill="#f7d6b5"
    d="M29 51c0-10.5 8.5-19 19-19s19 8.5 19 19v9c0 10.5-8.5 19-19 19s-19-8.5-19-19v-9Z"
  />
  <circle cx="38" cy="43" r="4" fill="#15100d" />
  <circle cx="58" cy="43" r="4" fill="#15100d" />
  <path
    fill="#15100d"
    d="M43.7 54.5c0-2.4 2-4.5 4.3-4.5s4.3 2.1 4.3 4.5c0 2.3-2.7 5.5-4.3 5.5s-4.3-3.2-4.3-5.5Z"
  />
  <path
    fill="none"
    stroke="#15100d"
    stroke-linecap="round"
    stroke-width="3"
    d="M48 59v5m0 0c-3.7 3.4-8.1 2.6-10.5-.6M48 64c3.7 3.4 8.1 2.6 10.5-.6"
  />
  <circle cx="32" cy="55" r="3" fill="#ef9aa7" opacity=".7" />
  <circle cx="64" cy="55" r="3" fill="#ef9aa7" opacity=".7" />
</svg>
